<?xml version="1.0" standalone="no"?>
<!DOCTYPE svg PUBLIC "-//W3C//DTD SVG 20010904//EN"
 "http://www.w3.org/TR/2001/REC-SVG-20010904/DTD/svg10.dtd">
<svg version="1.0" xmlns="http://www.w3.org/2000/svg"
 width="512.000000pt" height="512.000000pt" viewBox="0 0 512.000000 512.000000"
 preserveAspectRatio="xMidYMid meet">

<g transform="translate(0.000000,512.000000) scale(0.100000,-0.100000)"
fill="#ffffff" stroke="none">
<path d="M1080 3755 c-8 -2 -49 -9 -90 -15 -160 -26 -361 -111 -493 -208 -241
-176 -409 -438 -473 -732 -26 -118 -26 -362 0 -480 104 -482 474 -845 961
-941 103 -21 349 -18 455 5 170 37 346 116 480 217 41 31 155 139 254 239
l178 181 -143 147 c-79 81 -149 154 -156 162 -11 12 -41 -13 -206 -177 -240
-239 -317 -290 -499 -327 -519 -107 -989 363 -882 882 31 151 86 252 198 369
113 119 232 185 388 217 193 40 403 -2 563 -111 67 -46 231 -210 985 -986 480
-494 573 -583 676 -649 116 -74 283 -140 429 -169 103 -21 349 -18 455 5 472
101 834 463 936 936 26 118 26 362 0 480 -117 540 -564 925 -1112 956 -208 13
-395 -26 -590 -121 -153 -74 -240 -143 -447 -354 l-179 -182 153 -157 c84 -86
156 -158 159 -160 3 -1 86 79 185 179 190 191 259 246 365 290 424 178 909
-70 1021 -521 18 -71 18 -269 0 -340 -33 -132 -97 -248 -194 -349 -245 -253
-623 -303 -922 -123 -82 49 -104 71 -867 854 -420 432 -698 709 -746 745 -153
115 -354 200 -539 228 -85 13 -258 18 -303 10z"/>
</g>
</svg>
